<svg id="Layer_1" data-name="Layer 1" xmlns="http://www.w3.org/2000/svg" xmlns:xlink="http://www.w3.org/1999/xlink" width="406.29" height="327.15" viewBox="0 0 406.29 327.15"><defs><style>.cls-1{fill:#fff;}.cls-1,.cls-11,.cls-12,.cls-13,.cls-14,.cls-15,.cls-16,.cls-17,.cls-19,.cls-2,.cls-22,.cls-3,.cls-4,.cls-5,.cls-6,.cls-7,.cls-8,.cls-9{fill-rule:evenodd;}.cls-2{fill:#a1843d;}.cls-3{fill:#17b8ca;}.cls-4{fill:#dfe6f3;}.cls-5{fill:#554e57;}.cls-6{fill:#417b65;}.cls-7{fill:#f1bd19;}.cls-8{fill:#30bfd0;}.cls-9{fill:#2e3865;}.cls-10{mask:url(#mask);}.cls-11{fill:#e2e2e2;}.cls-12{fill:#4f63f9;}.cls-13{fill:#012f5b;}.cls-14{fill:#e0e0e0;}.cls-15{fill:#eabd7c;}.cls-16{fill:#bdbdbd;}.cls-17{fill:#f5f5f5;}.cls-18,.cls-20{fill:none;stroke-linecap:round;}.cls-18{stroke:#6d6e70;stroke-width:2.5px;}.cls-19{fill:#ffce56;}.cls-20{stroke:#a1843d;stroke-width:5px;}.cls-21{mask:url(#mask-2-2);}.cls-22{fill:#2e3fbd;}.cls-23{mask:url(#mask-3);}.cls-24{mask:url(#mask-4-2);}.cls-25{mask:url(#mask-5);}</style><mask id="mask" x="3.5" y="274.14" width="226.45" height="53.01" maskUnits="userSpaceOnUse"><g id="mask-2"><polygon id="path-1" class="cls-1" points="3.5 274.14 229.96 274.14 229.96 327.15 3.5 327.15 3.5 274.14"/></g></mask><mask id="mask-2-2" x="0" y="269.7" width="202.56" height="48.45" maskUnits="userSpaceOnUse"><g id="mask-4"><polygon id="path-3" class="cls-1" points="0 269.7 202.56 269.7 202.56 318.15 0 318.15 0 269.7"/></g></mask><mask id="mask-3" x="0" y="262.22" width="202.56" height="48.45" maskUnits="userSpaceOnUse"><g id="mask-6"><polygon id="path-5" class="cls-1" points="0 262.22 202.56 262.22 202.56 310.67 0 310.67 0 262.22"/></g></mask><mask id="mask-4-2" x="0" y="254.44" width="202.56" height="48.45" maskUnits="userSpaceOnUse"><g id="mask-8"><polygon id="path-7" class="cls-1" points="0 254.44 202.56 254.44 202.56 302.89 0 302.89 0 254.44"/></g></mask><mask id="mask-5" x="0" y="246.67" width="202.56" height="48.45" maskUnits="userSpaceOnUse"><g id="mask-10"><polygon id="path-9" class="cls-1" points="0 246.66 202.56 246.66 202.56 295.12 0 295.12 0 246.66"/></g></mask></defs><g id="Page-1"><g id="_404-error-page" data-name="404-error-page"><g id="_404-bear" data-name="404-bear"><path id="Fill-1" class="cls-2" d="M237.65,46.48c0-6.92-5.88-12.52-13.13-12.52s-13.12,5.6-13.12,12.52S217.27,59,224.52,59s13.13-5.6,13.13-12.52"/><path id="Fill-3" class="cls-3" d="M248.58,4.91,258.27.84a10.77,10.77,0,0,1,8.34,0l9.68,4.07a10,10,0,0,0,2.55.75,7.64,7.64,0,0,1,6.73,7.56V27.08c.75,39.09-8.27,18.38-18.38,18.38h-9.5c-10.11,0-19.17,5.29-18.38-18.38V13.22A7.64,7.64,0,0,1,246,5.66a9.77,9.77,0,0,0,2.54-.75"/><path id="Fill-5" class="cls-4" d="M256.07,3.42a5.47,5.47,0,0,1,5.68,0s9.07,4.36,9.07,8.05V28.31c.51,37.08-5.63,17.43-12.52,17.43h-6.48c-6.89,0-13.06,5-12.52-17.43V12.25c0-3.69,16.77-8.83,16.77-8.83"/><path id="Fill-7" class="cls-5" d="M251.27,16.91a1.27,1.27,0,0,1-1.11,0,.09.09,0,0,0-.07,0,.09.09,0,0,0,0,.06v3.64a4.78,4.78,0,0,0,1.31,1V17a.09.09,0,0,0,0-.06.09.09,0,0,0-.07,0"/><path id="Fill-9" class="cls-5" d="M250.72,14.88a.87.87,0,1,0,0,1.73.87.87,0,0,0,0-1.73"/><path id="Fill-11" class="cls-6" d="M253.23,19.26a1.27,1.27,0,0,1-1.11,0,.06.06,0,0,0-.07,0,.05.05,0,0,0,0,.05V21.9a5.09,5.09,0,0,0,1.31.28V19.32a.05.05,0,0,0,0-.05.06.06,0,0,0-.07,0"/><path id="Fill-13" class="cls-6" d="M252.67,17.23a.87.87,0,1,0,.87.87.87.87,0,0,0-.87-.87"/><path id="Fill-15" class="cls-7" d="M255.19,15.22a1.27,1.27,0,0,1-1.11,0,.06.06,0,0,0-.07,0,.06.06,0,0,0,0,.06v6.89a4.82,4.82,0,0,0,1.31-.25V15.29a.06.06,0,0,0,0-.06.06.06,0,0,0-.07,0"/><path id="Fill-17" class="cls-7" d="M254.64,13.2a.87.87,0,1,0,.86.86.86.86,0,0,0-.86-.86"/><path id="Fill-19" class="cls-8" d="M256.68,17.47a.87.87,0,1,0-.87-.87.87.87,0,0,0,.87.87"/><path id="Fill-21" class="cls-8" d="M257.33,20.6V17.83a.06.06,0,0,0,0-.06h-.06a1.23,1.23,0,0,1-1.12,0h-.07a.06.06,0,0,0,0,.06v3.78a5,5,0,0,0,1.31-1"/><path id="Fill-23" class="cls-5" d="M253.71,8.13a9.1,9.1,0,0,0-9,9.2,9.24,9.24,0,0,0,2.56,6.42l1-1a7.85,7.85,0,0,1-2-5.3,7.43,7.43,0,1,1,14.84,0,7.86,7.86,0,0,1-2,5.27l1,1.06a9.24,9.24,0,0,0-6.43-15.62"/><path id="Fill-25" class="cls-8" d="M253.68,9.93a7.37,7.37,0,0,0-7.21,7.49,7.62,7.62,0,0,0,2,5.14l.73-.74a.9.9,0,0,0,.09-1.08,7.51,7.51,0,0,1-1.2-3.41v-.25a5.65,5.65,0,0,1,11.29,0v.25a8,8,0,0,1-1.2,3.38,1,1,0,0,0,.1,1.13l.69.7a7.66,7.66,0,0,0,1.94-5.12,7.36,7.36,0,0,0-7.21-7.49"/><path id="Fill-27" class="cls-9" d="M282.39,41.55c.66-1.47-.56-4.76-4.86-11.09s-14.11-10.27-26.83-9.81c-11.87.43-19.46,8.78-18,16.22.59,3,3.17,6.92,4.68,7.12,8-4.67,18.57-9.26,24.36-9.26s12.82,2.42,20.64,6.82"/><g id="Group-31"><g class="cls-10"><path id="Fill-29" class="cls-11" d="M229.1,303.88C221.47,318.4,165,328.74,102.92,327s-106.18-15-98.56-29.54,64.12-24.86,126.18-23.07,106.18,15,98.56,29.54"/></g></g><path id="Fill-32" class="cls-12" d="M355.27,74.25c-.6-.84-3.53-5.61-1.78-16.82a24.6,24.6,0,0,1,10.86-17.21l4,7a16.57,16.57,0,0,0-6.9,11.45c-1.23,8,.46,11,.48,11a1.57,1.57,0,0,0-.11-.17Z"/><polygon id="Fill-34" class="cls-13" points="373.41 29.27 364.59 38.24 369.78 46.5 381.53 42.19 373.41 29.27"/><polygon id="Fill-36" class="cls-14" points="391.25 36.58 382.5 22.65 397.54 13.2 406.29 27.13 391.25 36.58"/><polygon id="Fill-38" class="cls-15" points="393.49 19.28 392.9 18.33 397.62 15.37 398.21 16.31 393.49 19.28"/><polygon id="Fill-40" class="cls-15" points="394.37 20.68 393.78 19.73 398.5 16.77 399.09 17.71 394.37 20.68"/><polygon id="Fill-42" class="cls-15" points="395.25 22.08 394.66 21.14 399.38 18.17 399.97 19.11 395.25 22.08"/><polygon id="Fill-44" class="cls-15" points="396.13 23.48 395.54 22.54 400.26 19.57 400.85 20.52 396.13 23.48"/><polygon id="Fill-46" class="cls-15" points="397.01 24.88 396.42 23.94 401.14 20.97 401.73 21.92 397.01 24.88"/><polygon id="Fill-48" class="cls-15" points="397.89 26.28 397.3 25.34 402.02 22.37 402.61 23.32 397.89 26.28"/><polygon id="Fill-50" class="cls-15" points="398.77 27.68 398.18 26.74 402.9 23.78 403.49 24.72 398.77 27.68"/><polygon id="Fill-52" class="cls-15" points="399.65 29.09 399.06 28.14 403.78 25.18 404.37 26.12 399.65 29.09"/><polygon id="Fill-54" class="cls-16" points="398.77 27.68 396.65 29.02 396.06 28.07 398.18 26.74 397.89 26.28 395.77 27.61 395.18 26.67 397.3 25.34 397.01 24.88 394.89 26.21 394.3 25.27 396.42 23.94 396.13 23.48 394.01 24.81 393.42 23.87 395.54 22.54 395.25 22.08 393.13 23.41 392.54 22.47 394.66 21.14 394.37 20.68 392.25 22.01 391.66 21.07 393.78 19.73 393.49 19.28 391.37 20.61 384.09 25.19 389.66 34.05 396.94 29.47 399.06 28.14 398.77 27.68"/><polygon id="Fill-56" class="cls-17" points="388.77 32.64 384.97 26.6 390.88 22.88 394.68 28.93 388.77 32.64"/><path id="Fill-58" class="cls-12" d="M381.63,42.36l-8.51-13.55a1.57,1.57,0,0,1,.49-2.16l6.84-4.3a1.58,1.58,0,0,1,2.17.49l8.51,13.55a1.58,1.58,0,0,1-.49,2.17l-6.84,4.29a1.58,1.58,0,0,1-2.17-.49"/><path id="Fill-60" class="cls-12" d="M370.39,29.52l3.73,5.94-.65.4-3.62-5.76-1.59,1.71L377,45.72l2.13-.85L375.43,39l.65-.41,3.77,6,1-.38a.74.74,0,0,0,.35-1.08l-8.92-14.21a.75.75,0,0,0-1.18-.11Z"/><path id="Fill-62" class="cls-12" d="M363.65,36.75l-1.32,1.43a.74.74,0,0,0-.08.9l5.95,9.47a.75.75,0,0,0,.91.3l1.72-.68Z"/><polygon id="Fill-64" class="cls-12" points="374.44 46.73 376.28 46 367.72 32.38 366.35 33.85 369.27 38.5 368.63 38.91 365.81 34.43 364.19 36.17 371.55 47.88 373.72 47.02 370.59 42.03 371.24 41.62 374.44 46.73"/><path id="Fill-66" class="cls-11" d="M328.85,300.13c-4.74,6.67-39.89,11.41-78.5,10.59s-66.06-6.89-61.31-13.56,39.89-11.41,78.5-10.59,66.06,6.89,61.31,13.56"/><line id="Stroke-68" class="cls-18" x1="290.36" y1="275.24" x2="295.88" y2="246.42"/><path id="Fill-70" class="cls-2" d="M275.83,136.53a9.31,9.31,0,0,1-3.92-17.75l88.25-40.89A9.31,9.31,0,0,1,368,94.78l-88.24,40.89a9.4,9.4,0,0,1-3.91.86"/><path id="Fill-72" class="cls-2" d="M374.71,90.25c-4.7,5.45-13.13,5.87-18.84,1S349.34,77.89,354,72.44s13.13-5.87,18.83-1,6.54,13.32,1.85,18.76"/><polygon id="Fill-74" class="cls-19" points="289.9 219.38 259.89 241.09 259.3 240.69 259.55 254.24 259.89 253.28 274.41 294.3 292.45 291.39 279.09 291.25 289.9 219.38"/><path id="Fill-76" class="cls-19" d="M234.51,224.07l-28.39-19L226,291.18l9.1,1.46c-.29-16.34-.71-48.52-.56-68.57"/><polygon id="Fill-80" class="cls-2" points="312.55 201.69 289.9 219.38 279.09 291.25 292.45 291.39 293.77 291.18 312.55 201.69"/><path id="Fill-82" class="cls-2" d="M188.25,138.17c-6.67,26.87-1.75,54.66,11,62.07s28.46-8.38,35.13-35.25,1.75-54.65-11-62.06-28.47,8.38-35.13,35.24"/><path id="Fill-84" class="cls-2" d="M280.71,46.48c0-6.92,5.87-12.52,13.13-12.52S307,39.56,307,46.48,301.08,59,293.84,59s-13.13-5.6-13.13-12.52"/><path id="Fill-86" class="cls-19" d="M204.64,154.63c-7.64,49.69,9.66,84.52,35,95.72,17.15-9.53,77.25-18.47,66.46-149.79-5.69-40.05-13.53-69-46.92-68.74C217.53,32.13,212.9,100.88,204.64,154.63Z"/><path id="Fill-88" class="cls-2" d="M313.5,154.08c-3.49-18.88-5.61-37.14-8.13-53.52-2.49,66.4-6,108.89-71,147.16a54.73,54.73,0,0,0,20.78,4.07c37.33,0,69.64-36.79,58.38-97.71"/><path id="Fill-90" class="cls-9" d="M276,53.89c0,3.14-1.73,5.68-3.86,5.68s-3.87-2.54-3.87-5.68,1.73-5.67,3.87-5.67S276,50.76,276,53.89"/><path id="Fill-92" class="cls-9" d="M252.74,53.89c0,3.14-1.73,5.68-3.86,5.68S245,57,245,53.89s1.73-5.67,3.87-5.67,3.86,2.54,3.86,5.67"/><path id="Fill-94" class="cls-2" d="M276,78.77c0,10.6-6.94,19.2-15.5,19.2S245,89.37,245,78.77s6.94-19.2,15.51-19.2,15.5,8.6,15.5,19.2"/><path id="Fill-96" class="cls-9" d="M268.76,69.19c0,2.86-3.64,5.18-8.13,5.18s-8.14-2.32-8.14-5.18S256.14,64,260.63,64s8.13,2.32,8.13,5.19"/><path id="Stroke-98" class="cls-20" d="M282,48.81c-1.74-5.61-6.73-9.27-10.35-7.58"/><path id="Stroke-100" class="cls-20" d="M238.9,48.81c1.74-5.61,6.73-9.27,10.35-7.58"/><path id="Fill-102" class="cls-9" d="M263.48,89.27h-5.65a2.55,2.55,0,1,1,0-5.1h5.65a2.55,2.55,0,0,1,0,5.1"/><path id="Fill-104" class="cls-2" d="M225.86,279.24c-12.72,0-23,8.21-23,18.33h46c0-10.12-10.31-18.33-23-18.33"/><path id="Fill-106" class="cls-2" d="M293.83,279.24c-12.71,0-23,8.21-23,18.33h46.05c0-10.12-10.31-18.33-23-18.33"/><g id="Group-110"><g class="cls-21"><path id="Fill-108" class="cls-12" d="M8.16,293.93c0,.05,1.48,5.33,25.22,10.25,18.09,3.75,42.21,5.82,67.9,5.82s49.81-2.07,67.9-5.82c23.74-4.92,25.22-10.2,25.22-10.25s-1.48-5.34-25.22-10.25c-18.09-3.75-42.21-5.82-67.9-5.82s-49.81,2.07-67.9,5.82C9.64,288.59,8.16,293.88,8.16,293.93Zm-8.16,0c0-7.85,10.38-13.82,31.72-18.24,18.62-3.86,43.33-6,69.56-6s50.94,2.13,69.56,6c21.34,4.42,31.72,10.39,31.72,18.24s-10.38,13.81-31.72,18.24c-18.62,3.86-43.33,6-69.56,6s-50.94-2.12-69.56-6C10.38,307.74,0,301.78,0,293.93Z"/></g></g><path id="Fill-111" class="cls-22" d="M192.82,292.07c1.38,1.13,1.58,1.84,1.58,1.85s-1.48,5.34-25.22,10.26C151.09,307.93,127,310,101.28,310s-49.81-2.06-67.91-5.81C9.64,299.26,8.16,294,8.16,293.92s.2-.72,1.58-1.85c-1.38-1.13-1.58-1.84-1.58-1.86S9.64,284.88,33.37,280c18.1-3.75,42.22-5.82,67.91-5.82s49.81,2.07,67.9,5.82c23.74,4.92,25.22,10.2,25.22,10.25s-.2.73-1.58,1.86m9.53,0c-1.54-6.94-11.88-12.32-31.51-16.39-18.62-3.86-43.33-6-69.56-6s-50.94,2.12-69.56,6c-19.63,4.07-30,9.45-31.51,16.39,1.54,6.94,11.88,12.31,31.51,16.38,18.62,3.86,43.33,6,69.56,6s50.94-2.13,69.56-6c19.63-4.07,30-9.44,31.51-16.38"/><g id="Group-115"><g class="cls-23"><path id="Fill-113" class="cls-12" d="M33.38,276.2C9.64,281.12,8.16,286.4,8.16,286.45s1.48,5.33,25.22,10.25c18.09,3.75,42.21,5.82,67.9,5.82s49.81-2.07,67.9-5.82c23.74-4.92,25.22-10.2,25.22-10.25s-1.48-5.33-25.22-10.25c-18.09-3.75-42.21-5.82-67.9-5.82s-49.81,2.07-67.9,5.82m-1.66,28.49C10.38,300.26,0,294.3,0,286.45s10.38-13.82,31.72-18.24c18.62-3.86,43.33-6,69.56-6s50.94,2.13,69.56,6c21.34,4.42,31.72,10.39,31.72,18.24s-10.38,13.81-31.72,18.24c-18.62,3.86-43.33,6-69.56,6s-50.94-2.12-69.56-6"/></g></g><path id="Fill-116" class="cls-22" d="M192.82,284.29c1.38,1.13,1.58,1.84,1.58,1.85s-1.48,5.34-25.22,10.26c-18.09,3.75-42.21,5.81-67.9,5.81s-49.81-2.06-67.91-5.81C9.64,291.48,8.16,286.2,8.16,286.14s.2-.72,1.58-1.85c-1.38-1.13-1.58-1.84-1.58-1.86s1.48-5.33,25.21-10.25c18.1-3.75,42.22-5.82,67.91-5.82s49.81,2.07,67.9,5.82c23.74,4.92,25.22,10.2,25.22,10.25s-.2.73-1.58,1.86m9.53,0c-1.54-6.94-11.88-12.32-31.51-16.39-18.62-3.86-43.33-6-69.56-6s-50.94,2.12-69.56,6C12.09,272,1.75,277.35.21,284.29c1.54,6.94,11.88,12.31,31.51,16.38,18.62,3.86,43.33,6,69.56,6s50.94-2.13,69.56-6c19.63-4.07,30-9.44,31.51-16.38"/><g id="Group-120"><g class="cls-24"><path id="Fill-118" class="cls-12" d="M33.38,268.42c-23.74,4.92-25.22,10.2-25.22,10.25S9.64,284,33.38,288.92c18.09,3.75,42.21,5.82,67.9,5.82s49.81-2.07,67.9-5.82c23.74-4.92,25.22-10.2,25.22-10.25s-1.48-5.33-25.22-10.25c-18.09-3.75-42.21-5.82-67.9-5.82s-49.81,2.07-67.9,5.82m-1.66,28.49C10.38,292.49,0,286.52,0,278.67s10.38-13.82,31.72-18.24c18.62-3.86,43.33-6,69.56-6s50.94,2.13,69.56,6c21.34,4.42,31.72,10.39,31.72,18.24s-10.38,13.82-31.72,18.24c-18.62,3.86-43.33,6-69.56,6s-50.94-2.13-69.56-6"/></g></g><path id="Fill-121" class="cls-22" d="M192.82,276.51c1.38,1.13,1.58,1.84,1.58,1.85s-1.48,5.34-25.22,10.26c-18.09,3.75-42.21,5.81-67.9,5.81s-49.81-2.06-67.91-5.81C9.64,283.7,8.16,278.42,8.16,278.36s.2-.72,1.58-1.85c-1.38-1.13-1.58-1.84-1.58-1.86s1.48-5.33,25.21-10.25c18.1-3.75,42.22-5.82,67.91-5.82s49.81,2.07,67.9,5.82c23.74,4.92,25.22,10.2,25.22,10.25s-.2.73-1.58,1.86m9.53,0c-1.54-6.94-11.88-12.32-31.51-16.39-18.62-3.85-43.33-6-69.56-6s-50.94,2.13-69.56,6c-19.63,4.07-30,9.45-31.51,16.39,1.54,6.94,11.88,12.31,31.51,16.38,18.62,3.86,43.33,6,69.56,6s50.94-2.13,69.56-6c19.63-4.07,30-9.44,31.51-16.38"/><g id="Group-125"><g class="cls-25"><path id="Fill-123" class="cls-12" d="M33.38,260.64c-23.74,4.92-25.22,10.2-25.22,10.25s1.48,5.33,25.22,10.25c18.09,3.75,42.21,5.82,67.9,5.82s49.81-2.07,67.9-5.82c23.74-4.92,25.22-10.2,25.22-10.25s-1.48-5.33-25.22-10.25c-18.09-3.75-42.21-5.82-67.9-5.82s-49.81,2.07-67.9,5.82m-1.66,28.49C10.38,284.7,0,278.74,0,270.89s10.38-13.82,31.72-18.24c18.62-3.86,43.33-6,69.56-6s50.94,2.12,69.56,6c21.34,4.42,31.72,10.39,31.72,18.24s-10.38,13.81-31.72,18.24c-18.62,3.86-43.33,6-69.56,6s-50.94-2.13-69.56-6"/></g></g><path id="Fill-126" class="cls-12" d="M361.31,92.17a76.38,76.38,0,0,1,5.76,16.09c2.48,11.09.79,18.76-5,22.79-10.42,7.23-18.78,3.3-31.58-3.71a107.36,107.36,0,0,0-13.27-6.5c-3.66-1.4-6.62-2.65-9.22-3.75-9.23-3.89-14.33-6-28.61-5.33-26.28,1.29-49.53,17.34-60.66,41.88a71.11,71.11,0,0,0-1.93,54.43c6.17,17.57,3.54,29.29-3.49,44.78-8.41,18.54-25.49,28-53.76,29.88l.52,8c31.13-2,51-13.34,60.59-34.6,7.71-17,10.8-30.75,3.73-50.85A63.09,63.09,0,0,1,226.08,157c9.88-21.78,30.45-36,53.7-37.16,12.48-.61,16.16,1,25.08,4.71,2.66,1.12,5.69,2.4,9.48,3.85a101.83,101.83,0,0,1,12.28,6c11.72,6.42,25,13.71,40.05,3.26,16.13-11.21,8-35.34,3.5-45.59a34.65,34.65,0,0,1-8.86.08"/><path id="Fill-78" class="cls-2" d="M234.34,247.72c-.15,20,.07,28.58.37,44.92l10.44,1.66,14.4-40.06-.25-13.55Z"/></g></g></g></svg>